{"asset":{"version":"2.0","generator":"THREE.GLTFExporter"},"scenes":[{"nodes":[0],"name":"AuxScene"}],"scene":0,"nodes":[{"mesh":0}],"bufferViews":[{"buffer":0,"byteOffset":0,"byteLength":3384,"target":34962,"byteStride":12},{"buffer":0,"byteOffset":3384,"byteLength":3384,"target":34962,"byteStride":12}],"buffers":[{"byteLength":6768,"uri":"data:application/octet-stream;base64,"}],"accessors":[{"bufferView":0,"componentType":5126,"count":282,"max":[39.30000305175781,10.037094116210938,29.400001525878906],"min":[-29.399999618530273,0.03709600120782852,-29.399999618530273],"type":"VEC3"},{"bufferView":1,"componentType":5126,"count":282,"max":[0.5050649642944336,1,0.2444317787885666],"min":[-0.44635358452796936,0.8317123651504517,-0.08131367713212967],"type":"VEC3"}],"materials":[{"pbrMetallicRoughness":{"baseColorFactor":[0.5019607843137255,0.5019607843137255,0.5019607843137255,1],"metallicFactor":0,"roughnessFactor":1}}],"meshes":[{"primitives":[{"mode":4,"attributes":{"POSITION":0,"NORMAL":1},"material":0}]}]}